<?xml version="1.0" encoding="utf-8"?>
<!-- Generator: Adobe Illustrator 18.0.0, SVG Export Plug-In . SVG Version: 6.00 Build 0)  -->
<!DOCTYPE svg PUBLIC "-//W3C//DTD SVG 1.1//EN" "http://www.w3.org/Graphics/SVG/1.1/DTD/svg11.dtd">
<svg version="1.1" xmlns="http://www.w3.org/2000/svg" xmlns:xlink="http://www.w3.org/1999/xlink" x="0px" y="0px"
	 viewBox="0 0 208.1 218.1" enable-background="new 0 0 208.1 218.1" xml:space="preserve">
<g id="Layer_1">
	<rect x="0" y="0" width="209.7" height="219.8"/>
</g>
<g id="Layer_2">
	<path fill="#FFFFFF" d="M107.1,16c-25,0-45.2,20.3-45.2,45.2s20.3,45.2,45.2,45.2c25,0,45.2-20.3,45.2-45.2S132.1,16,107.1,16z
		 M107.1,65.4c-0.7,0-1.4-0.2-2-0.5L94.9,75.1c-0.5,0.5-1.2,0.5-1.7,0c-0.5-0.5-0.5-1.2,0-1.7l10.3-10.3v0c-0.3-0.6-0.5-1.3-0.5-2
		c0-1.9,1.3-3.5,3-4V27.1c0-0.6,0.5-1.2,1.2-1.2c0.6,0,1.2,0.5,1.2,1.2v30.1c1.7,0.5,3,2.1,3,4C111.3,63.5,109.4,65.4,107.1,65.4z"
		/>
	<path fill="#FFFFFF" d="M143.3,88.2l-32,55.4c-1.8,3.2-6.4,3.2-8.3,0L71,88.2H143.3z"/>
	<text transform="matrix(1 0 0 1 25.746 191.8159)"><tspan x="0" y="0" fill="#00ACEE" font-family="'Avenir-Roman'" font-size="36">H</tspan><tspan x="26" y="0" fill="#FFFFFF" font-family="'Avenir-Roman'" font-size="36">app</tspan><tspan x="88.7" y="0" fill="#42BC62" font-family="'Avenir-Roman'" font-size="36">S</tspan><tspan x="108.7" y="0" fill="#FFFFFF" font-family="'Avenir-Roman'" font-size="36">nap</tspan></text>
</g>
</svg>
