<?xml version="1.0" encoding="utf-8"?>
<!-- Generator: Adobe Illustrator 18.0.0, SVG Export Plug-In . SVG Version: 6.00 Build 0)  -->
<!DOCTYPE svg PUBLIC "-//W3C//DTD SVG 1.1//EN" "http://www.w3.org/Graphics/SVG/1.1/DTD/svg11.dtd">
<svg version="1.1" xmlns="http://www.w3.org/2000/svg" xmlns:xlink="http://www.w3.org/1999/xlink" x="0px" y="0px"
	 viewBox="0 0 500 500" enable-background="new 0 0 500 500" xml:space="preserve">
<g id="Layer_1">
	<rect x="-3.4" y="-4" width="509.7" height="511"/>
</g>
<g id="Layer_2">
	<text transform="matrix(1 0 0 1 169.0003 338.9997)" display="none"><tspan x="0" y="0" display="inline" fill="#42BC62" font-family="'Avenir-Medium'" font-size="36">H</tspan><tspan x="26.7" y="0" display="inline" fill="#00ACEE" font-family="'Avenir-Medium'" font-size="36">app </tspan><tspan x="99.4" y="0" display="inline" fill="#42BC62" font-family="'Avenir-Medium'" font-size="36">S</tspan><tspan x="119.4" y="0" display="inline" fill="#00ACEE" font-family="'Avenir-Medium'" font-size="36">nap</tspan></text>
	<path fill="none" stroke="#FFFFFF" stroke-width="9.0552" stroke-miterlimit="10" d="M200.6,247.3l-2.3-3.9l52.1,85.3
		c4.1,6.8,14,6.8,18.1,0l50.8-82.5"/>
	<path fill="none" stroke="#FFFFFF" stroke-width="9.0552" stroke-miterlimit="10" d="M200.6,247.3L200.6,247.3
		c-9.3-15.1-16-28.8-16-46.3c0-41.3,33.5-74.9,74.9-74.9c41.3,0,74.9,33.5,74.9,74.9c0,17.7-8.4,35.1-16.8,48.1"/>
	<circle fill="#FFFFFF" cx="262.7" cy="194.6" r="7"/>
	<g>
		<g>
			<path fill="#FFFFFF" d="M265.2,194.6c0-15.5,0-31,0-46.4c0-3.2-5-3.2-5,0c0,15.5,0,31,0,46.4
				C260.2,197.9,265.2,197.9,265.2,194.6L265.2,194.6z"/>
		</g>
	</g>
	<g>
		<g>
			<path fill="#FFFFFF" d="M261,192.9c-7.9,7.9-15.8,15.8-23.6,23.6c-2.3,2.3,1.3,5.8,3.5,3.5c7.9-7.9,15.8-15.8,23.6-23.6
				C266.8,194.1,263.3,190.6,261,192.9L261,192.9z"/>
		</g>
	</g>
</g>
</svg>
