<?xml version="1.0" ?><!DOCTYPE svg  PUBLIC '-//W3C//DTD SVG 1.1//EN'  'http://www.w3.org/Graphics/SVG/1.1/DTD/svg11.dtd'><svg enable-background="new 0 0 400 400" height="400px" id="Layer_1" version="1.1" viewBox="0 0 400 400" width="400px" xml:space="preserve" xmlns="http://www.w3.org/2000/svg" xmlns:xlink="http://www.w3.org/1999/xlink"><g><g><g><g><path clip-rule="evenodd" d="M158.479,144.637c-1.225,0-2.227-1.002-2.227-2.227v-11.143      c0-1.225-1.002-2.227-2.227-2.227H98.711c-1.225,0-2.227,1.002-2.227,2.227v11.143c0,1.225-1.002,2.227-2.227,2.227h-1.676      c-1.225,0-2.512,0.961-2.861,2.135L68,219.855c-0.349,1.174-0.634,3.136-0.634,4.36v34.521c0,1.225,0,3.229,0,4.453v39.331      c0,1.225,1.002,2.227,2.227,2.227h73.855c1.225,0,2.227-1.002,2.227-2.227v-28.191c0-1.225,0-3.229,0-4.453v-6.687      c0-1.225,0-3.229,0-4.453v-28.94c0-1.225,1.002-2.227,2.227-2.227h21.327c1.225,0,2.227-1.002,2.227-2.227v-78.479      c0-1.225-1.002-2.227-2.227-2.227H158.479z" fill-rule="evenodd"/></g><g><path clip-rule="evenodd" d="M153.758,100.143c0-1.03-0.843-1.873-1.873-1.873h-50.196      c-1.03,0-1.873,0.843-1.873,1.873v5.715c0,1.03,0.663,1.873,1.472,1.873s1.472,0.843,1.472,1.873v12.398      c0,1.03,0.843,1.873,1.873,1.873h44.295c1.03,0,1.873-0.843,1.873-1.873v-12.398c0-1.03,0.666-1.873,1.479-1.873      s1.479-0.843,1.479-1.873V100.143z" fill-rule="evenodd"/></g></g><g><g><path clip-rule="evenodd" d="M236.276,144.637c1.225,0,2.227-1.002,2.227-2.227v-11.143      c0-1.225,1.002-2.227,2.227-2.227h55.315c1.225,0,2.227,1.002,2.227,2.227v11.143c0,1.225,1.002,2.227,2.227,2.227h1.676      c1.225,0,2.512,0.961,2.861,2.135l21.721,73.084c0.349,1.174,0.634,3.136,0.634,4.36v34.521c0,1.225,0,3.229,0,4.453v39.331      c0,1.225-1.002,2.227-2.227,2.227h-73.849c-1.225,0-2.227-1.002-2.227-2.227v-28.191c0-1.225,0-3.229,0-4.453v-6.687      c0-1.225,0-3.229,0-4.453v-28.94c0-1.225-1.002-2.227-2.227-2.227h-21.326c-1.225,0-2.227-1.002-2.227-2.227v-78.479      c0-1.225,1.002-2.227,2.227-2.227H236.276z" fill-rule="evenodd"/></g><g><path clip-rule="evenodd" d="M241.006,100.143c0-1.03,0.843-1.873,1.873-1.873h50.194      c1.03,0,1.873,0.843,1.873,1.873v5.715c0,1.03-0.664,1.873-1.475,1.873s-1.475,0.843-1.475,1.873v12.398      c0,1.03-0.843,1.873-1.873,1.873h-44.294c-1.03,0-1.873-0.843-1.873-1.873v-12.398c0-1.03-0.664-1.873-1.475-1.873      s-1.475-0.843-1.475-1.873V100.143z" fill-rule="evenodd"/></g></g><g><path clip-rule="evenodd" d="M216.028,207.673c0,2.546-1.917,3.815-4.261,2.823     c0,0-4.269-1.809-14.392-1.809c-11.963,0-14.576,1.413-14.576,1.413c-2.239,1.21-4.071,0.118-4.071-2.428V186.86     c0-2.546,0-6.71,0-9.256v-20.793c0-2.546,2.083-4.628,4.628-4.628h9.392c2.545,0,6.71,0,9.256,0h9.397     c2.545,0,4.628,2.082,4.628,4.628v20.793c0,2.546,0,6.71,0,9.256V207.673z" fill-rule="evenodd"/></g></g></g></svg>