<?xml version="1.0" encoding="utf-8"?>
<!-- Generator: Adobe Illustrator 18.0.0, SVG Export Plug-In . SVG Version: 6.00 Build 0)  -->
<!DOCTYPE svg PUBLIC "-//W3C//DTD SVG 1.1//EN" "http://www.w3.org/Graphics/SVG/1.1/DTD/svg11.dtd">
<svg version="1.1" id="Layer_1" xmlns="http://www.w3.org/2000/svg" xmlns:xlink="http://www.w3.org/1999/xlink" x="0px" y="0px"
	 viewBox="0 0 640 480" enable-background="new 0 0 640 480" xml:space="preserve">
<path fill-rule="evenodd" clip-rule="evenodd" fill="#00ABEE" d="M395.7,68.1c-13.9-19.2-36.6-35-67.1-37.7c-2,0-4.1,0-6.1,0
	c-2,0-4.1,0-6.1,0c-30.5,2.7-53.2,18.4-67.1,37.7c-14.8,20.4-22.6,51.8-12.3,82.5c8.4,24.9,23.2,46.3,37.8,66.8
	c14.8,20.7,30.8,40.6,47.7,56.3c16.9-15.7,32.9-35.5,47.7-56.3c14.6-20.4,29.4-41.9,37.8-66.8C418.3,119.9,410.5,88.5,395.7,68.1z
	 M321.8,190.6c-37.5,0-67.9-30.3-67.9-67.7c0-37.4,30.4-67.7,67.9-67.7c37.5,0,67.9,30.3,67.9,67.7
	C389.7,160.3,359.3,190.6,321.8,190.6z"/>
<path fill="#00ABEE" d="M324.3,75.5c0,1.4-1.1,2.5-2.5,2.5l0,0c-1.4,0-2.5-1.1-2.5-2.5v-11c0-1.4,1.1-2.5,2.5-2.5l0,0
	c1.4,0,2.5,1.1,2.5,2.5V75.5z"/>
<path fill="#00ABEE" d="M324.3,181.5c0,1.4-1.1,2.5-2.5,2.5l0,0c-1.4,0-2.5-1.1-2.5-2.5v-11c0-1.4,1.1-2.5,2.5-2.5l0,0
	c1.4,0,2.5,1.1,2.5,2.5V181.5z"/>
<path fill="#00ABEE" d="M367.6,123.7c-1.4,0-2.5-1.1-2.5-2.5l0,0c0-1.4,1.1-2.5,2.5-2.5h11c1.4,0,2.5,1.1,2.5,2.5l0,0
	c0,1.4-1.1,2.5-2.5,2.5H367.6z"/>
<path fill="#00ABEE" d="M263.3,123.7c-1.4,0-2.5-1.1-2.5-2.5l0,0c0-1.4,1.1-2.5,2.5-2.5h11c1.4,0,2.5,1.1,2.5,2.5l0,0
	c0,1.4-1.1,2.5-2.5,2.5H263.3z"/>
<g>
	<path fill="#00ABEE" d="M312.5,121.3l-19,19.6c0,0-0.7,4.6,3.3,3.5l22.7-22.2l-1.6-3.4L312.5,121.3z"/>
	<path fill="#00ABEE" d="M355.1,148.3l-29.8-29.5l-2.8,4.9l28.2,28.2C350.8,152,355.8,152.4,355.1,148.3z"/>
</g>
<path fill="#979A9B" d="M319.4,112.7c0,0-0.1,0-0.1,0l-9.8-38.3c-2.2-1.2-3,1.1-3,1.1l9.6,38.1l-0.4,0.2l0,0
	c-1.9,1.2-3.2,3.4-3.2,5.8c0,3.8,3.1,6.9,6.9,6.9c3.8,0,6.9-3.1,6.9-6.9C326.2,115.8,323.2,112.7,319.4,112.7z"/>
<ellipse opacity="0.5" fill="#515151" cx="322.5" cy="288.2" rx="29.1" ry="6.1"/>
<g>
	<polygon fill="#979A9B" points="406.9,337.6 485.3,337.6 446.7,282.1 386.5,282.1 	"/>
	<polygon fill="#00ABEE" points="358.3,282.1 194.6,282.1 153.4,337.6 376,337.6 	"/>
</g>
<g>
	<path fill="#00ABEE" d="M69.9,357.1h14.2v27.7h24.5v-27.7h14.1v73.5h-14.1v-32.2H84.1v32.2H69.9V357.1z"/>
	<path fill="#00ABEE" d="M178.2,376.2h13.6v54.4h-13.6v-5.7c-2.7,2.5-5.3,4.4-8,5.5c-2.7,1.1-5.6,1.7-8.7,1.7
		c-7,0-13.1-2.7-18.2-8.2c-5.1-5.4-7.7-12.2-7.7-20.3c0-8.4,2.5-15.3,7.4-20.6c5-5.4,11-8,18.1-8c3.3,0,6.3,0.6,9.2,1.8
		c2.9,1.2,5.5,3.1,7.9,5.5V376.2z M163.9,387.4c-4.2,0-7.7,1.5-10.5,4.5c-2.8,3-4.2,6.8-4.2,11.5c0,4.7,1.4,8.6,4.3,11.6
		c2.8,3,6.3,4.5,10.5,4.5c4.3,0,7.8-1.5,10.7-4.5c2.8-3,4.2-6.9,4.2-11.7c0-4.7-1.4-8.6-4.2-11.5
		C171.7,388.9,168.2,387.4,163.9,387.4z"/>
	<path fill="#00ABEE" d="M219.2,376.2v6c2.5-2.5,5.1-4.3,8-5.5c2.9-1.2,5.9-1.8,9.2-1.8c7.1,0,13.1,2.7,18.1,8
		c5,5.4,7.4,12.2,7.4,20.6c0,8.1-2.6,14.9-7.7,20.3c-5.1,5.4-11.2,8.2-18.2,8.2c-3.1,0-6-0.6-8.7-1.7c-2.7-1.1-5.4-2.9-8-5.5v25.6
		h-13.5v-74.3H219.2z M233.5,387.4c-4.3,0-7.9,1.5-10.7,4.4c-2.8,2.9-4.2,6.8-4.2,11.5c0,4.8,1.4,8.7,4.2,11.7
		c2.8,3,6.4,4.5,10.7,4.5c4.2,0,7.7-1.5,10.5-4.5c2.8-3,4.3-6.9,4.3-11.6c0-4.7-1.4-8.5-4.2-11.5
		C241.3,388.9,237.8,387.4,233.5,387.4z"/>
	<path fill="#00ABEE" d="M286.7,376.2v6c2.5-2.5,5.1-4.3,8-5.5c2.9-1.2,5.9-1.8,9.2-1.8c7.1,0,13.1,2.7,18.1,8
		c5,5.4,7.4,12.2,7.4,20.6c0,8.1-2.6,14.9-7.7,20.3c-5.1,5.4-11.2,8.2-18.2,8.2c-3.1,0-6-0.6-8.7-1.7c-2.7-1.1-5.4-2.9-8-5.5v25.6
		h-13.5v-74.3H286.7z M301.1,387.4c-4.3,0-7.9,1.5-10.7,4.4c-2.8,2.9-4.2,6.8-4.2,11.5c0,4.8,1.4,8.7,4.2,11.7
		c2.8,3,6.4,4.5,10.7,4.5c4.2,0,7.7-1.5,10.5-4.5c2.8-3,4.3-6.9,4.3-11.6c0-4.7-1.4-8.5-4.2-11.5
		C308.9,388.9,305.3,387.4,301.1,387.4z"/>
	<path fill="#979A9B" d="M380.8,367.1l-10.4,9.1c-3.6-5.1-7.3-7.6-11.1-7.6c-1.8,0-3.3,0.5-4.5,1.5c-1.2,1-1.8,2.1-1.8,3.3
		c0,1.2,0.4,2.4,1.3,3.5c1.1,1.5,4.6,4.6,10.3,9.4c5.3,4.5,8.6,7.3,9.7,8.4c2.8,2.9,4.8,5.6,6,8.2c1.2,2.6,1.8,5.5,1.8,8.6
		c0,6-2.1,11-6.3,14.9c-4.2,3.9-9.6,5.9-16.3,5.9c-5.2,0-9.8-1.3-13.7-3.8c-3.9-2.6-7.2-6.6-10-12.1l11.8-7.1
		c3.5,6.5,7.6,9.7,12.2,9.7c2.4,0,4.4-0.7,6.1-2.1c1.6-1.4,2.5-3,2.5-4.8c0-1.7-0.6-3.3-1.9-5c-1.2-1.7-4-4.2-8.2-7.6
		c-8-6.5-13.2-11.6-15.5-15.1c-2.3-3.5-3.5-7.1-3.5-10.6c0-5.1,1.9-9.5,5.8-13.1c3.9-3.6,8.7-5.5,14.4-5.5c3.7,0,7.2,0.8,10.5,2.5
		C373.4,359.5,376.9,362.6,380.8,367.1z"/>
	<path fill="#979A9B" d="M394,376.2h13.6v5.6c3.1-2.6,5.9-4.4,8.4-5.4c2.5-1,5.1-1.5,7.7-1.5c5.4,0,10,1.9,13.7,5.6
		c3.2,3.2,4.7,7.9,4.7,14.2v35.9h-13.5v-23.8c0-6.5-0.3-10.8-0.9-12.9c-0.6-2.1-1.6-3.8-3-4.9c-1.4-1.1-3.2-1.7-5.4-1.7
		c-2.8,0-5.1,0.9-7.1,2.8c-2,1.8-3.3,4.4-4.1,7.7c-0.4,1.7-0.6,5.4-0.6,11v21.8H394V376.2z"/>
	<path fill="#979A9B" d="M495.5,376.2h13.6v54.4h-13.6v-5.7c-2.7,2.5-5.3,4.4-8,5.5c-2.7,1.1-5.6,1.7-8.7,1.7
		c-7,0-13.1-2.7-18.2-8.2c-5.1-5.4-7.7-12.2-7.7-20.3c0-8.4,2.5-15.3,7.4-20.6c5-5.4,11-8,18.1-8c3.3,0,6.3,0.6,9.2,1.8
		c2.9,1.2,5.5,3.1,7.9,5.5V376.2z M481.2,387.4c-4.2,0-7.7,1.5-10.5,4.5c-2.8,3-4.2,6.8-4.2,11.5c0,4.7,1.4,8.6,4.3,11.6
		c2.8,3,6.3,4.5,10.5,4.5c4.3,0,7.8-1.5,10.7-4.5c2.8-3,4.2-6.9,4.2-11.7c0-4.7-1.4-8.6-4.2-11.5C489,388.9,485.5,387.4,481.2,387.4
		z"/>
	<path fill="#979A9B" d="M536.5,376.2v6c2.5-2.5,5.1-4.3,8-5.5c2.9-1.2,5.9-1.8,9.2-1.8c7.1,0,13.1,2.7,18.1,8
		c5,5.4,7.4,12.2,7.4,20.6c0,8.1-2.6,14.9-7.7,20.3c-5.1,5.4-11.2,8.2-18.2,8.2c-3.1,0-6-0.6-8.7-1.7c-2.7-1.1-5.4-2.9-8-5.5v25.6
		h-13.5v-74.3H536.5z M550.8,387.4c-4.3,0-7.9,1.5-10.7,4.4c-2.8,2.9-4.2,6.8-4.2,11.5c0,4.8,1.4,8.7,4.2,11.7
		c2.8,3,6.4,4.5,10.7,4.5c4.2,0,7.7-1.5,10.5-4.5c2.8-3,4.3-6.9,4.3-11.6c0-4.7-1.4-8.5-4.2-11.5
		C558.6,388.9,555.1,387.4,550.8,387.4z"/>
</g>
<path fill="#00ABEE" d="M402.6,218.9H373c-2.4,3.4-4.9,6.7-7.3,10l14.5,34.4h53.4L402.6,218.9z"/>
<g>
	<path fill="#979A9B" d="M271.9,218.9h-34.7l-31.4,44.3h102.2C295.4,250,283.3,234.8,271.9,218.9z"/>
</g>
<path fill="#979A9B" d="M336.9,263.3h15.1l-4-12.3C344.3,255.2,340.6,259.3,336.9,263.3z"/>
<path opacity="0.4" fill="#515151" d="M346.9,287.5c0,2.8-11,5.1-24.5,5.1c-13.5,0-24.5-2.3-24.5-5.1c0-2.8,11-5.1,24.5-5.1
	C335.9,282.4,346.9,284.7,346.9,287.5z"/>
</svg>
