<?xml version="1.0" encoding="utf-8"?>
<!-- Generator: Adobe Illustrator 18.0.0, SVG Export Plug-In . SVG Version: 6.00 Build 0)  -->
<!DOCTYPE svg PUBLIC "-//W3C//DTD SVG 1.1//EN" "http://www.w3.org/Graphics/SVG/1.1/DTD/svg11.dtd">
<svg version="1.1" id="Layer_1" xmlns="http://www.w3.org/2000/svg" xmlns:xlink="http://www.w3.org/1999/xlink" x="0px" y="0px"
	 viewBox="0 0 100 100" enable-background="new 0 0 100 100" xml:space="preserve">
<path fill="#00ABEE" d="M61.8,23.1c-2.2-3-5.7-5.5-10.5-5.9c-0.3,0-0.6,0-1,0s-0.6,0-1,0c-4.8,0.4-8.3,2.9-10.5,5.9
	c-2.3,3.2-3.5,8.1-1.9,12.9c1.3,3.9,3.6,7.2,5.9,10.4c2.3,3.2,4.8,6.3,7.5,8.8c2.6-2.5,5.1-5.5,7.5-8.8c2.3-3.2,4.6-6.5,5.9-10.4
	C65.4,31.2,64.1,26.3,61.8,23.1z M50.3,42.3c-5.9,0-10.6-4.7-10.6-10.6s4.8-10.6,10.6-10.6s10.6,4.7,10.6,10.6
	C60.9,37.5,56.1,42.3,50.3,42.3z"/>
<path fill="#00ABEE" d="M50.7,24.3c0,0.2-0.2,0.4-0.4,0.4l0,0c-0.2,0-0.4-0.2-0.4-0.4v-1.7c0-0.2,0.2-0.4,0.4-0.4l0,0
	c0.2,0,0.4,0.2,0.4,0.4V24.3z"/>
<path fill="#00ABEE" d="M50.7,40.9c0,0.2-0.2,0.4-0.4,0.4l0,0c-0.2,0-0.4-0.2-0.4-0.4v-1.7c0-0.2,0.2-0.4,0.4-0.4l0,0
	c0.2,0,0.4,0.2,0.4,0.4V40.9z"/>
<path fill="#00ABEE" d="M57.4,31.8c-0.2,0-0.4-0.2-0.4-0.4l0,0c0-0.2,0.2-0.4,0.4-0.4h1.7c0.2,0,0.4,0.2,0.4,0.4l0,0
	c0,0.2-0.2,0.4-0.4,0.4H57.4z"/>
<path fill="#00ABEE" d="M41.1,31.8c-0.2,0-0.4-0.2-0.4-0.4l0,0c0-0.2,0.2-0.4,0.4-0.4h1.7c0.2,0,0.4,0.2,0.4,0.4l0,0
	c0,0.2-0.2,0.4-0.4,0.4H41.1z"/>
<g>
	<path fill="#00ABEE" d="M48.8,31.5l-3,3.1c0,0-0.1,0.7,0.5,0.5l3.5-3.5l-0.2-0.5L48.8,31.5z"/>
	<path fill="#00ABEE" d="M55.5,35.7l-4.7-4.6l-0.4,0.8l4.4,4.4C54.8,36.2,55.6,36.3,55.5,35.7z"/>
</g>
<path fill="#42BC62" d="M49.9,30.1L49.9,30.1l-1.5-6c-0.3-0.2-0.5,0.2-0.5,0.2l1.5,6l-0.1,0l0,0c-0.3,0.2-0.5,0.5-0.5,0.9
	c0,0.6,0.5,1.1,1.1,1.1c0.6,0,1.1-0.5,1.1-1.1C51,30.6,50.5,30.1,49.9,30.1z"/>
<ellipse opacity="0.5" fill="#515151" enable-background="new    " cx="50.4" cy="57.5" rx="4.5" ry="1"/>
<g>
	<polygon fill="#42BC62" points="63.6,65.2 75.8,65.2 69.8,56.6 60.4,56.6 	"/>
	<polygon fill="#00ABEE" points="56,56.6 30.4,56.6 24,65.2 58.8,65.2 	"/>
</g>
<g>
	<path fill="#00ABEE" d="M10.9,68.3h2.2v4.3H17v-4.3h2.2v11.5H17v-5h-3.8v5h-2.2V68.3z"/>
	<path fill="#FFFFFF" d="M27.8,71.3H30v8.5h-2.1v-0.9c-0.4,0.4-0.8,0.7-1.2,0.9S25.7,80,25.2,80c-1.1,0-2-0.4-2.8-1.3
		c-0.8-0.8-1.2-1.9-1.2-3.2c0-1.3,0.4-2.4,1.2-3.2c0.8-0.8,1.7-1.2,2.8-1.2c0.5,0,1,0.1,1.4,0.3c0.5,0.2,0.9,0.5,1.2,0.9V71.3z
		 M25.6,73c-0.7,0-1.2,0.2-1.6,0.7c-0.4,0.5-0.7,1.1-0.7,1.8s0.2,1.3,0.7,1.8c0.4,0.5,1,0.7,1.6,0.7c0.7,0,1.2-0.2,1.7-0.7
		c0.4-0.5,0.7-1.1,0.7-1.8c0-0.7-0.2-1.3-0.7-1.8C26.8,73.3,26.3,73,25.6,73z"/>
	<path fill="#FFFFFF" d="M34.2,71.3v0.9c0.4-0.4,0.8-0.7,1.2-0.9s0.9-0.3,1.4-0.3c1.1,0,2,0.4,2.8,1.2c0.8,0.8,1.2,1.9,1.2,3.2
		c0,1.3-0.4,2.3-1.2,3.2S38,80,36.9,80c-0.5,0-0.9-0.1-1.4-0.3s-0.8-0.5-1.2-0.9v4h-2.1V71.3L34.2,71.3L34.2,71.3z M36.5,73
		c-0.7,0-1.2,0.2-1.7,0.7s-0.7,1.1-0.7,1.8c0,0.8,0.2,1.4,0.7,1.8s1,0.7,1.7,0.7c0.7,0,1.2-0.2,1.6-0.7s0.7-1.1,0.7-1.8
		s-0.2-1.3-0.7-1.8S37.2,73,36.5,73z"/>
	<path fill="#FFFFFF" d="M44.8,71.3v0.9c0.4-0.4,0.8-0.7,1.2-0.9c0.5-0.2,0.9-0.3,1.4-0.3c1.1,0,2,0.4,2.8,1.2
		c0.8,0.8,1.2,1.9,1.2,3.2c0,1.3-0.4,2.3-1.2,3.2c-0.8,0.8-1.8,1.3-2.8,1.3c-0.5,0-0.9-0.1-1.4-0.3c-0.4-0.2-0.8-0.5-1.2-0.9v4h-2.1
		V71.3L44.8,71.3L44.8,71.3z M47,73c-0.7,0-1.2,0.2-1.7,0.7s-0.7,1.1-0.7,1.8c0,0.8,0.2,1.4,0.7,1.8c0.4,0.5,1,0.7,1.7,0.7
		c0.7,0,1.2-0.2,1.6-0.7c0.4-0.5,0.7-1.1,0.7-1.8s-0.2-1.3-0.7-1.8C48.3,73.3,47.7,73,47,73z"/>
	<path fill="#42BC62" d="M59.5,69.9l-1.6,1.4c-0.6-0.8-1.1-1.2-1.7-1.2c-0.3,0-0.5,0.1-0.7,0.2c-0.2,0.2-0.3,0.3-0.3,0.5
		s0.1,0.4,0.2,0.5c0.2,0.2,0.7,0.7,1.6,1.5c0.8,0.7,1.3,1.1,1.5,1.3c0.4,0.5,0.7,0.9,0.9,1.3c0.2,0.4,0.3,0.9,0.3,1.3
		c0,0.9-0.3,1.7-1,2.3c-0.7,0.6-1.5,0.9-2.5,0.9c-0.8,0-1.5-0.2-2.1-0.6c-0.6-0.4-1.1-1-1.6-1.9l1.8-1.1c0.5,1,1.2,1.5,1.9,1.5
		c0.4,0,0.7-0.1,1-0.3c0.2-0.2,0.4-0.5,0.4-0.8c0-0.3-0.1-0.5-0.3-0.8c-0.2-0.3-0.6-0.7-1.3-1.2c-1.2-1-2.1-1.8-2.4-2.4
		C53.2,72,53,71.5,53,70.9c0-0.8,0.3-1.5,0.9-2s1.4-0.9,2.2-0.9c0.6,0,1.1,0.1,1.6,0.4C58.3,68.7,58.9,69.2,59.5,69.9z"/>
	<path fill="#FFFFFF" d="M61.6,71.3h2.1v0.9c0.5-0.4,0.9-0.7,1.3-0.8s0.8-0.2,1.2-0.2c0.8,0,1.6,0.3,2.1,0.9
		c0.5,0.5,0.7,1.2,0.7,2.2v5.6H67v-3.7c0-1,0-1.7-0.1-2s-0.2-0.6-0.5-0.8S65.9,73,65.5,73c-0.4,0-0.8,0.1-1.1,0.4
		c-0.3,0.3-0.5,0.7-0.6,1.2c-0.1,0.3-0.1,0.8-0.1,1.7v3.4h-2.1V71.3z"/>
	<path fill="#FFFFFF" d="M77.4,71.3h2.1v8.5h-2.1v-0.9c-0.4,0.4-0.8,0.7-1.2,0.9S75.3,80,74.8,80c-1.1,0-2-0.4-2.8-1.3
		c-0.8-0.8-1.2-1.9-1.2-3.2c0-1.3,0.4-2.4,1.2-3.2c0.8-0.8,1.7-1.2,2.8-1.2c0.5,0,1,0.1,1.4,0.3c0.5,0.2,0.9,0.5,1.2,0.9
		C77.4,72.2,77.4,71.3,77.4,71.3z M75.2,73c-0.7,0-1.2,0.2-1.6,0.7s-0.7,1.1-0.7,1.8s0.2,1.3,0.7,1.8c0.4,0.5,1,0.7,1.6,0.7
		c0.7,0,1.2-0.2,1.7-0.7c0.4-0.5,0.7-1.1,0.7-1.8c0-0.7-0.2-1.3-0.7-1.8C76.4,73.3,75.9,73,75.2,73z"/>
	<path fill="#FFFFFF" d="M83.8,71.3v0.9c0.4-0.4,0.8-0.7,1.2-0.9s0.9-0.3,1.4-0.3c1.1,0,2,0.4,2.8,1.2c0.8,0.8,1.2,1.9,1.2,3.2
		c0,1.3-0.4,2.3-1.2,3.2c-0.8,0.8-1.8,1.3-2.8,1.3c-0.5,0-0.9-0.1-1.4-0.3c-0.4-0.2-0.8-0.5-1.2-0.9v4h-2.1V71.3L83.8,71.3
		L83.8,71.3z M86.1,73c-0.7,0-1.2,0.2-1.7,0.7c-0.4,0.5-0.7,1.1-0.7,1.8c0,0.8,0.2,1.4,0.7,1.8c0.4,0.5,1,0.7,1.7,0.7
		c0.7,0,1.2-0.2,1.6-0.7s0.7-1.1,0.7-1.8s-0.2-1.3-0.7-1.8C87.3,73.3,86.7,73,86.1,73z"/>
</g>
<path fill="#00ABEE" d="M62.9,46.7h-4.6c-0.4,0.5-0.8,1-1.1,1.6l2.3,5.4h8.3L62.9,46.7z"/>
<g>
	<path fill="#42BC62" d="M42.5,46.7h-5.4l-4.9,6.9h16C46.2,51.6,44.3,49.2,42.5,46.7z"/>
</g>
<path fill="#42BC62" d="M52.6,53.6H55l-0.6-1.9C53.8,52.4,53.2,53,52.6,53.6z"/>
<path opacity="0.4" fill="#515151" enable-background="new    " d="M54.2,57.4c0,0.4-1.7,0.8-3.8,0.8s-3.8-0.4-3.8-0.8
	c0-0.4,1.7-0.8,3.8-0.8S54.2,57,54.2,57.4z"/>
</svg>
