<?xml version="1.0" encoding="utf-8"?>
<!-- Generator: Adobe Illustrator 18.0.0, SVG Export Plug-In . SVG Version: 6.00 Build 0)  -->
<!DOCTYPE svg PUBLIC "-//W3C//DTD SVG 1.1//EN" "http://www.w3.org/Graphics/SVG/1.1/DTD/svg11.dtd">
<svg version="1.1" id="Layer_1" xmlns="http://www.w3.org/2000/svg" xmlns:xlink="http://www.w3.org/1999/xlink" x="0px" y="0px"
	 viewBox="0 0 1024 1024" enable-background="new 0 0 1024 1024" xml:space="preserve">
<rect fill="#FFFFFF" width="1024" height="1024"/>
<g>
	<path fill="#41BC62" d="M440.1,417.4h-56l-51.2,72.4h163.6C475.4,469.1,449.8,431.8,440.1,417.4z"/>
	<g>
		<path fill="#1498EA" d="M512.6,265l-31.1,32c0,0-1.1,7.4,5.3,5.7l37-36.2l-2.6-5.6L512.6,265z"/>
		<path fill="#1498EA" d="M582.1,309l-48.6-48.1l-4.6,8l46.1,46.1C575.1,315,583.2,315.8,582.1,309z"/>
	</g>
	<path fill="#41BC62" d="M523.8,251c-0.1,0-0.1,0-0.2,0l-16-62.5c-3.5-1.9-4.9,1.8-4.9,1.8l15.7,62.1l-0.6,0.4l0,0
		c-3.1,2-5.2,5.5-5.2,9.4c0,6.2,5,11.2,11.2,11.2c6.2,0,11.2-5,11.2-11.2C535,256,530,251,523.8,251z"/>
	<path opacity="0.5" fill="#FFFFFF" d="M570.7,530.4c0,5.5-21.3,9.9-47.5,9.9c-26.2,0-47.5-4.4-47.5-9.9c0-5.5,21.3-9.9,47.5-9.9
		C549.5,520.5,570.7,525,570.7,530.4z"/>
	<g>
		<polygon fill="#41BC62" points="660.8,611 788.9,611 725.8,520.5 627.5,520.5 		"/>
		<polygon fill="#1498EA" points="581.6,520.5 314.4,520.5 247.2,611 610.5,611 		"/>
	</g>
	<path fill="#41BC62" d="M546.6,489.7h24.6l-6.5-20C558.8,476.6,552.8,483.3,546.6,489.7z"/>
	<path fill="#1498EA" d="M654,417.4h-46.6c-3.2,4.8-7.6,11.2-12.8,18.5l22.8,53.9h87.1L654,417.4z"/>
	<path fill-rule="evenodd" clip-rule="evenodd" fill="#1498EA" d="M642.6,171.2c-22.8-31.4-59.7-57.1-109.5-61.5c-3.3,0-6.6,0-10,0
		s-6.6,0-10,0c-49.8,4.4-86.7,30.1-109.5,61.5c-24.2,33.3-37,84.5-20.1,134.6c13.7,40.6,37.8,75.6,61.7,108.9
		c24.2,33.8,50.3,66.2,77.8,91.8c27.5-25.6,53.6-58,77.8-91.8c23.9-33.4,48-68.3,61.7-108.9C679.5,255.7,666.8,204.6,642.6,171.2z
		 M522.1,371.2c-61.2,0-110.8-49.5-110.8-110.5c0-61,49.6-110.5,110.8-110.5c61.2,0,110.8,49.5,110.8,110.5
		C632.9,321.8,583.2,371.2,522.1,371.2z"/>
</g>
<path opacity="0.35" fill="#515151" d="M569.5,530.4c0,5.4-20.9,9.7-46.6,9.7c-25.7,0-46.6-4.4-46.6-9.7c0-5.4,20.9-9.7,46.6-9.7
	C548.7,520.7,569.5,525.1,569.5,530.4z"/>
<text transform="matrix(1 0 0 1 121 752)"><tspan x="0" y="0" fill="#1498EA" font-family="'Avenir-Medium'" font-size="165">H</tspan><tspan x="122.3" y="0" fill="#FFFFFF" font-family="'Avenir-Medium'" font-size="165">app</tspan><tspan x="409.5" y="0" fill="#41BC62" font-family="'Avenir-Medium'" font-size="165">S</tspan><tspan x="501.3" y="0" fill="#FFFFFF" font-family="'Avenir-Medium'" font-size="165">nap</tspan></text>
</svg>
