<?xml version="1.0" encoding="utf-8"?>
<!-- Generator: Adobe Illustrator 18.0.0, SVG Export Plug-In . SVG Version: 6.00 Build 0)  -->
<!DOCTYPE svg PUBLIC "-//W3C//DTD SVG 1.1//EN" "http://www.w3.org/Graphics/SVG/1.1/DTD/svg11.dtd">
<svg version="1.1" id="Layer_1" xmlns="http://www.w3.org/2000/svg" xmlns:xlink="http://www.w3.org/1999/xlink" x="0px" y="0px"
	 viewBox="0 0 1024 1024" enable-background="new 0 0 1024 1024" xml:space="preserve">
<rect display="none" fill="#FFFFFF" width="1024" height="1024"/>
<g>
	<path fill="#41BC62" d="M434,569h-56l-51.2,72.4h163.6C469.3,620.7,443.7,583.4,434,569z"/>
	<g>
		<path fill="#1498EA" d="M506.5,416.6l-31.1,32c0,0-1.1,7.4,5.3,5.7l37-36.2l-2.6-5.6L506.5,416.6z"/>
		<path fill="#1498EA" d="M576.1,460.6l-48.6-48.1l-4.6,8l46.1,46.1C569,466.7,577.1,467.4,576.1,460.6z"/>
	</g>
	<path fill="#41BC62" d="M517.7,402.6c-0.1,0-0.1,0-0.2,0l-16-62.5c-3.5-1.9-4.9,1.8-4.9,1.8l15.7,62.1l-0.6,0.4l0,0
		c-3.1,2-5.2,5.5-5.2,9.4c0,6.2,5,11.2,11.2,11.2c6.2,0,11.2-5,11.2-11.2C528.9,407.7,523.9,402.6,517.7,402.6z"/>
	<path opacity="0.5" fill="#FFFFFF" d="M564.6,682.1c0,5.5-21.3,9.9-47.5,9.9c-26.2,0-47.5-4.4-47.5-9.9c0-5.5,21.3-9.9,47.5-9.9
		C543.4,672.1,564.6,676.6,564.6,682.1z"/>
	<g>
		<polygon fill="#41BC62" points="654.7,762.6 782.8,762.6 719.8,672.1 621.4,672.1 		"/>
		<polygon fill="#1498EA" points="575.5,672.1 308.3,672.1 241.1,762.6 604.4,762.6 		"/>
	</g>
	<path fill="#41BC62" d="M540.5,641.3h24.6l-6.5-20C552.7,628.3,546.7,635,540.5,641.3z"/>
	<path fill="#1498EA" d="M647.9,569h-46.6c-3.2,4.8-7.6,11.2-12.8,18.5l22.8,53.9h87.1L647.9,569z"/>
	<path fill-rule="evenodd" clip-rule="evenodd" fill="#1498EA" d="M636.5,322.9c-22.8-31.4-59.7-57.1-109.5-61.5c-3.3,0-6.6,0-10,0
		s-6.6,0-10,0c-49.8,4.4-86.7,30.1-109.5,61.5c-24.2,33.3-37,84.5-20.1,134.6c13.7,40.6,37.8,75.6,61.7,108.9
		c24.2,33.8,50.3,66.2,77.8,91.8c27.5-25.6,53.6-58,77.8-91.8c23.9-33.4,48-68.3,61.7-108.9C673.4,407.4,660.7,356.2,636.5,322.9z
		 M516,522.9c-61.2,0-110.8-49.5-110.8-110.5c0-61,49.6-110.5,110.8-110.5c61.2,0,110.8,49.5,110.8,110.5
		C626.8,473.4,577.2,522.9,516,522.9z"/>
</g>
<path opacity="0.35" fill="#515151" d="M563.5,682.1c0,5.4-20.9,9.7-46.6,9.7c-25.7,0-46.6-4.4-46.6-9.7c0-5.4,20.9-9.7,46.6-9.7
	C542.6,672.3,563.5,676.7,563.5,682.1z"/>
</svg>
