<?xml version="1.0" encoding="utf-8"?>
<!-- Generator: Adobe Illustrator 18.0.0, SVG Export Plug-In . SVG Version: 6.00 Build 0)  -->
<!DOCTYPE svg PUBLIC "-//W3C//DTD SVG 1.1//EN" "http://www.w3.org/Graphics/SVG/1.1/DTD/svg11.dtd">
<svg version="1.1" id="Layer_1" xmlns="http://www.w3.org/2000/svg" xmlns:xlink="http://www.w3.org/1999/xlink" x="0px" y="0px"
	 viewBox="0 0 500 500" enable-background="new 0 0 500 500" xml:space="preserve">
<g>
	<path fill="none" stroke="#050000" stroke-width="1.3193" stroke-miterlimit="10" d="M335,216c-16,3-31,6-47,5c-13-1-25-2-38-5
		c-24-7-51-10-74,0c-3-31,3-62,1-94c0-1-1-4-1-4c21-7,42-6,64-4c18,3,35,8,53,10c14,1,29,0,42-6c3,31-3,62-1,94
		C334,213,335,215,335,216L335,216z"/>
</g>
<path fill="#050000" d="M182.4,399.5h-12.6c-2.8,0-5-2.2-5-5V107.2c0-2.8,2.2-5,5-5h12.6c2.8,0,5,2.2,5,5v287.3
	C187.4,397.2,185.1,399.5,182.4,399.5z"/>
</svg>
