<?xml version="1.0" encoding="utf-8"?>
<!-- Generator: Adobe Illustrator 18.0.0, SVG Export Plug-In . SVG Version: 6.00 Build 0)  -->
<!DOCTYPE svg PUBLIC "-//W3C//DTD SVG 1.1//EN" "http://www.w3.org/Graphics/SVG/1.1/DTD/svg11.dtd">
<svg version="1.1" xmlns="http://www.w3.org/2000/svg" xmlns:xlink="http://www.w3.org/1999/xlink" x="0px" y="0px"
	 viewBox="0 0 178 141" enable-background="new 0 0 178 141" xml:space="preserve">
<g id="Layer_1">
</g>
<g id="Artboard_2">
	<path fill="none" stroke="#FFFFFF" stroke-width="1.6997" stroke-miterlimit="10" d="M98.8,43.2h25c1.7,0,3.2,1.4,3.2,3.2v48
		c0,1.7-1.4,3.2-3.2,3.2H54.2c-1.7,0-3.2-1.4-3.2-3.2v-48c0-1.7,1.4-3.2,3.2-3.2h25"/>
	<path fill="none" stroke="#FFFFFF" stroke-width="1.6997" stroke-miterlimit="10" d="M110,69.9c0.2,11.9-9.5,21.7-21.4,21.4
		C77.4,91.1,68.2,81.9,68,70.7C67.7,58.8,77.5,49,89.4,49.3C100.6,49.5,109.8,58.7,110,69.9z"/>
	<path fill="none" stroke="#FFFFFF" stroke-width="1.6997" stroke-miterlimit="10" d="M98.8,44v-3.2c0-1.7-1.4-3.2-3.2-3.2H82.3
		c-1.7,0-3.2,1.4-3.2,3.2V44"/>
	<path fill="none" stroke="#FFFFFF" stroke-width="1.6997" stroke-miterlimit="10" d="M120.7,52.7h-5.9c-1.7,0-3.2-1.4-3.2-3.2v0
		c0-1.7,1.4-3.2,3.2-3.2h5.9c1.7,0,3.2,1.4,3.2,3.2v0C123.8,51.2,122.4,52.7,120.7,52.7z"/>
	<line fill="none" stroke="#FFFFFF" stroke-width="1.6997" stroke-miterlimit="10" x1="78.7" y1="69.9" x2="98.4" y2="69.9"/>
	<line fill="none" stroke="#FFFFFF" stroke-width="1.6997" stroke-miterlimit="10" x1="88.6" y1="80.1" x2="88.6" y2="60.5"/>
</g>
</svg>
