<?xml version="1.0" encoding="utf-8"?>
<!-- Generator: Adobe Illustrator 18.0.0, SVG Export Plug-In . SVG Version: 6.00 Build 0)  -->
<!DOCTYPE svg PUBLIC "-//W3C//DTD SVG 1.1//EN" "http://www.w3.org/Graphics/SVG/1.1/DTD/svg11.dtd">
<svg version="1.1" id="Layer_2" xmlns="http://www.w3.org/2000/svg" xmlns:xlink="http://www.w3.org/1999/xlink" x="0px" y="0px"
	 viewBox="0 0 228.7 130.7" enable-background="new 0 0 228.7 130.7" xml:space="preserve">
<g>
	<path fill="#979A9B" d="M137.5,106.4c-0.1,0.9-0.2,1.8-0.2,2.7C137.3,108.1,137.4,107.2,137.5,106.4z"/>
	<path fill="#979A9B" d="M146.5,20.2H80.9c-6.5,0-12.8,2.1-17.3,5.7L20.3,61.1h186.8l-43.3-35.2C159.3,22.2,153,20.2,146.5,20.2z"/>
	<path fill="#979A9B" d="M221,71.5v24.1c0,7.5-5.5,13.5-12.2,13.5h-21.1c0-0.6,0-1.3-0.1-1.9c0-0.3,0-0.6-0.1-0.9c0-0.1,0-0.2,0-0.2
		c0-0.4-0.1-0.8-0.1-1.2c-0.2-1.3-0.5-2.6-0.9-3.9c-0.1-0.3-0.2-0.6-0.3-1c-0.1-0.3-0.2-0.5-0.3-0.8c-0.1-0.3-0.2-0.7-0.4-1
		c-0.2-0.4-0.3-0.8-0.5-1.1c-0.1-0.3-0.3-0.6-0.4-0.9c-0.6-1.3-1.4-2.5-2.2-3.7c-0.2-0.3-0.4-0.6-0.7-0.9c-0.8-1.1-1.7-2.1-2.7-3
		c-0.3-0.3-0.6-0.6-0.9-0.9c-1-0.9-2-1.6-3.1-2.4c-0.7-0.5-1.4-0.9-2.2-1.3c-0.8-0.4-1.6-0.8-2.4-1.1c-0.7-0.2-1.3-0.5-2-0.7
		c-0.1,0-0.3-0.1-0.5-0.1c-0.8-0.2-1.5-0.4-2.3-0.5c-1.4-0.2-2.8-0.4-4.2-0.4c-1.5,0-3,0.1-4.4,0.4c-0.3,0-0.6,0.1-0.9,0.2
		c-0.5,0.1-1,0.2-1.5,0.4c-0.8,0.2-1.5,0.5-2.2,0.7c-0.4,0.2-0.8,0.3-1.2,0.5c-0.4,0.2-0.8,0.4-1.2,0.6c-1.1,0.6-2.2,1.2-3.3,2
		c-0.4,0.2-0.7,0.5-1,0.8c0,0,0,0,0,0v0c-0.3,0.3-0.7,0.5-1,0.8c-0.3,0.3-0.6,0.6-0.9,0.9c-0.9,0.9-1.8,1.8-2.5,2.8
		c-0.1,0.2-0.3,0.3-0.4,0.5c-0.2,0.2-0.3,0.4-0.4,0.6c-0.6,0.8-1.1,1.7-1.6,2.6c-0.2,0.3-0.3,0.5-0.4,0.8c-0.4,0.8-0.7,1.5-1.1,2.3
		c-0.1,0.3-0.3,0.6-0.4,1c-0.1,0.2-0.2,0.5-0.3,0.8c-0.1,0.3-0.2,0.6-0.3,1c0,0.1,0,0.1,0,0.2c-0.1,0.4-0.2,0.8-0.3,1.2
		c-0.1,0.4-0.2,0.8-0.3,1.2c-0.1,0.5-0.2,0.9-0.2,1.4c-0.1,0.4-0.1,0.8-0.1,1.2c0,0.1,0,0.2,0,0.2c-0.1,0.9-0.1,1.8-0.1,2.7
		c-0.6,0.1-1.1,0.1-1.7,0.1H91.8C91.7,93.8,80,81.4,65.5,81.4c-14.5,0-26.2,12.4-26.3,27.7h-18c-6.8,0-12.2-6-12.2-13.5V71.5
		C9,64.1,14.5,58,21.2,58h187.5C215.5,58,221,64.1,221,71.5z"/>
	<path fill="#979A9B" d="M137.5,106.4c-0.1,0.9-0.2,1.8-0.2,2.7C137.3,108.1,137.4,107.2,137.5,106.4z"/>
	<circle fill="#979A9B" cx="66.5" cy="107.7" r="18"/>
	<circle fill="#979A9B" cx="161.5" cy="107.7" r="18"/>
</g>
</svg>
