<?xml version="1.0" encoding="utf-8"?>
<!-- Generator: Adobe Illustrator 18.0.0, SVG Export Plug-In . SVG Version: 6.00 Build 0)  -->
<!DOCTYPE svg PUBLIC "-//W3C//DTD SVG 1.1//EN" "http://www.w3.org/Graphics/SVG/1.1/DTD/svg11.dtd">
<svg version="1.1" xmlns="http://www.w3.org/2000/svg" xmlns:xlink="http://www.w3.org/1999/xlink" x="0px" y="0px"
	 viewBox="0 0 23 23" enable-background="new 0 0 23 23" xml:space="preserve">
<g id="Layer_1">
</g>
<g id="Layer_2">
	<g>
		<circle fill="#FFFFFF" cx="11.5" cy="2.8" r="2.7"/>
		<path fill="#FFFFFF" d="M16.1,10.3v0.3h-1.7l0,0H14l0,0h-0.7c-0.4,0-0.7,0.3-0.7,0.7v6.5h-2.2v-6.4c0-0.5-0.4-0.8-0.8-0.8H8.9l0,0
			H8.6l0,0H6.9v-0.3C7.8,10,8.5,9,8.5,7.9c0-0.5-0.1-0.9-0.3-1.3h6.5c-0.2,0.4-0.3,0.8-0.3,1.2C14.4,9,15.1,9.9,16.1,10.3z"/>
		<circle fill="#FFFFFF" cx="4.9" cy="7.2" r="2.7"/>
		<path fill="#FFFFFF" d="M9.4,12.3v9.9c0,0.4-0.3,0.7-0.7,0.7H8.4c-0.4,0-0.7-0.3-0.7-0.7v-8H7.4v8.2c0,0.2-0.2,0.4-0.4,0.4H2.7
			c-0.2,0-0.4-0.2-0.4-0.4v-8.2H2v8c0,0.4-0.3,0.7-0.7,0.7H1c-0.4,0-0.7-0.3-0.7-0.7v-9.9c0-0.4,0.3-0.7,0.7-0.7h7.8
			C9.1,11.6,9.4,11.9,9.4,12.3z"/>
		<circle fill="#FFFFFF" cx="18.1" cy="7.6" r="2.7"/>
		<path fill="#FFFFFF" d="M22.7,12.3v9.9c0,0.4-0.3,0.7-0.7,0.7h-0.3c-0.4,0-0.7-0.3-0.7-0.7v-8h-0.4v8.2c0,0.2-0.2,0.4-0.4,0.4H16
			c-0.2,0-0.4-0.2-0.4-0.4v-8.2h-0.4v8c0,0.4-0.3,0.7-0.7,0.7h-0.3c-0.4,0-0.7-0.3-0.7-0.7v-9.9c0-0.4,0.3-0.7,0.7-0.7H22
			C22.4,11.6,22.7,11.9,22.7,12.3z"/>
	</g>
</g>
</svg>
