<?xml version="1.0" encoding="utf-8"?>
<!-- Generator: Adobe Illustrator 18.0.0, SVG Export Plug-In . SVG Version: 6.00 Build 0)  -->
<!DOCTYPE svg PUBLIC "-//W3C//DTD SVG 1.1//EN" "http://www.w3.org/Graphics/SVG/1.1/DTD/svg11.dtd">
<svg version="1.1" xmlns="http://www.w3.org/2000/svg" xmlns:xlink="http://www.w3.org/1999/xlink" x="0px" y="0px"
	 viewBox="0 0 100 100" enable-background="new 0 0 100 100" xml:space="preserve">
<g id="Layer_1">
</g>
<g id="Events_2_Share">
	<g id="Icons">
		<circle fill="#00ACEE" cx="50" cy="50" r="50"/>
		<g>
			<path fill="#FFFFFF" d="M59,53.9c-5.4-4-6.8-6.2-1.6-10.2c2.9-2.3,5-5.3,5-9c0-4-1.7-7.7-4.8-9.6H62l3.8-3.8c0,0-14.2,0-16.8,0
				c-10.5,0-15.6,6.3-15.6,13.2c0,7.1,4.8,12.6,14.3,12.6c-1.5,3-0.9,5.7,1.5,7.7c-16.2,0-19.6,7.1-19.6,12.6
				c0,7.1,8.1,11.3,17.9,11.3c13.4,0,18.7-7.1,18.7-12.9C66.1,61,64.4,57.9,59,53.9z M39.7,34.4c-0.8-6,2.3-10.5,6.8-10.4
				c4.5,0.1,8.4,5,9.2,11c0.8,6-1.8,9.8-6.4,9.6C44.7,44.5,40.4,40.3,39.7,34.4z M47.5,75.5c-6.8,0-11.6-4.3-11.6-9.4
				c0-5,5.7-9.4,12.5-9.3c7.5,0,12,4.7,12,9.6C60.3,71.5,56.1,75.5,47.5,75.5z M77.9,45.1v-6.3h-4v6.3h-6.3v4h6.3v6.6h4V49h6.6v-4
				H77.9z"/>
		</g>
	</g>
</g>
</svg>
