<?xml version="1.0" encoding="utf-8"?>
<!-- Generator: Adobe Illustrator 18.0.0, SVG Export Plug-In . SVG Version: 6.00 Build 0)  -->
<!DOCTYPE svg PUBLIC "-//W3C//DTD SVG 1.1//EN" "http://www.w3.org/Graphics/SVG/1.1/DTD/svg11.dtd">
<svg version="1.1" xmlns="http://www.w3.org/2000/svg" xmlns:xlink="http://www.w3.org/1999/xlink" x="0px" y="0px"
	 viewBox="0 0 40 41.1" enable-background="new 0 0 40 41.1" xml:space="preserve">
<g id="Background" display="none">
	<rect x="-25" y="-18" display="inline" stroke="#FFFFFF" stroke-miterlimit="10" width="1022" height="615"/>
</g>
<g id="Layer_1">
	<g>
		<path fill="none" stroke="#FFFFFF" stroke-width="1.1121" stroke-miterlimit="10" d="M6.4,16.8v19.4c0,1.3,1,2.4,2.3,2.4h7.7"/>
		<path fill="none" stroke="#FFFFFF" stroke-width="1.1121" stroke-miterlimit="10" d="M32.8,16.9v19.4c0,1.3-1,2.4-2.3,2.4h-6.2"/>
		<polyline fill="none" stroke="#FFFFFF" stroke-width="1.0684" stroke-miterlimit="10" points="24.3,39.2 24.3,23.5 16.4,23.5 
			16.4,39.2 		"/>
		<path fill="none" stroke="#FFFFFF" stroke-width="0.8499" stroke-miterlimit="10" d="M6.4,17.3l-4.6,0c-0.8,0-1.1-1.1-0.5-1.6
			L19.2,2.1c0.3-0.2,0.7-0.2,1,0l5.1,3.9"/>
		<path fill="none" stroke="#FFFFFF" stroke-width="0.8499" stroke-miterlimit="10" d="M31,10.4l6.9,5.3c0.6,0.5,0.3,1.6-0.5,1.6
			l-4.6,0"/>
		<path fill="none" stroke="#FFFFFF" stroke-width="0.8499" stroke-miterlimit="10" d="M25.4,6.4V4.1c0-0.8,0.6-1.5,1.4-1.5h2.9
			c0.8,0,1.4,0.7,1.4,1.5v6.7"/>
		<line fill="none" stroke="#FFFFFF" stroke-width="1.0684" stroke-miterlimit="10" x1="15.6" y1="38.7" x2="16.9" y2="38.7"/>
		<line fill="none" stroke="#FFFFFF" stroke-width="1.0684" stroke-miterlimit="10" x1="23.8" y1="38.7" x2="25.1" y2="38.7"/>
	</g>
</g>
</svg>
