<?xml version="1.0" encoding="utf-8"?>
<!-- Generator: Adobe Illustrator 18.0.0, SVG Export Plug-In . SVG Version: 6.00 Build 0)  -->
<!DOCTYPE svg PUBLIC "-//W3C//DTD SVG 1.1//EN" "http://www.w3.org/Graphics/SVG/1.1/DTD/svg11.dtd">
<svg version="1.1" xmlns="http://www.w3.org/2000/svg" xmlns:xlink="http://www.w3.org/1999/xlink" x="0px" y="0px"
	 viewBox="0 0 960 560" enable-background="new 0 0 960 560" xml:space="preserve">
<g id="Background" display="none">
	<rect x="-25" y="-18" display="inline" stroke="#FFFFFF" stroke-miterlimit="10" width="1022" height="615"/>
</g>
<g id="Layer_1">
	<path fill="none" stroke="#FFFFFF" stroke-width="14.572" stroke-miterlimit="10" d="M312.1,226.1v249.1
		c0,16.8,13.6,30.3,30.3,30.3h103.2"/>
	<path fill="none" stroke="#FFFFFF" stroke-width="14.572" stroke-miterlimit="10" d="M666.1,226.8v248.5
		c0,16.8-13.6,30.3-30.3,30.3h-83.7"/>
	<polyline fill="none" stroke="#FFFFFF" stroke-width="14" stroke-miterlimit="10" points="552.1,512.8 552.1,311.8 445.6,311.8 
		445.6,512.8 	"/>
	<path fill="none" stroke="#FFFFFF" stroke-width="11.1367" stroke-miterlimit="10" d="M312.1,231.6l-61-0.1
		c-10.8,0-15.2-13.8-6.5-20.1l238.6-174c3.9-2.9,9.2-2.8,13.1,0l68.8,50.5"/>
	<path fill="none" stroke="#FFFFFF" stroke-width="11.1367" stroke-miterlimit="10" d="M641.6,144.1l92.7,68.1
		c8.7,6.4,4.1,20.1-6.6,20.1l-61.6-0.1"/>
	<path fill="none" stroke="#FFFFFF" stroke-width="11.1367" stroke-miterlimit="10" d="M567.3,92.4V62.7c0-10.5,8.5-19.1,19.1-19.1
		h38.3c10.5,0,19.1,8.5,19.1,19.1v86"/>
	<line fill="none" stroke="#FFFFFF" stroke-width="14" stroke-miterlimit="10" x1="435.2" y1="505.9" x2="452.5" y2="505.9"/>
	<line fill="none" stroke="#FFFFFF" stroke-width="14" stroke-miterlimit="10" x1="545.1" y1="505.9" x2="562.5" y2="505.9"/>
</g>
</svg>
