<?xml version="1.0" encoding="utf-8"?>
<!-- Generator: Adobe Illustrator 18.0.0, SVG Export Plug-In . SVG Version: 6.00 Build 0)  -->
<!DOCTYPE svg PUBLIC "-//W3C//DTD SVG 1.1//EN" "http://www.w3.org/Graphics/SVG/1.1/DTD/svg11.dtd">
<svg version="1.1" xmlns="http://www.w3.org/2000/svg" xmlns:xlink="http://www.w3.org/1999/xlink" x="0px" y="0px"
	 viewBox="0 0 500 500" enable-background="new 0 0 500 500" xml:space="preserve">
<g id="Layer_1">
	<rect x="-11.1" y="-6" width="517.8" height="513.2"/>
</g>
<g id="Layer_2">
	<line fill="#808080" x1="188.2" y1="451.2" x2="180.9" y2="451.2"/>
	<line fill="#808080" x1="265.4" y1="354" x2="259.2" y2="354"/>
	<line fill="none" x1="456" y1="518.6" x2="449.8" y2="518.6"/>
	<line fill="#808080" x1="542.9" y1="439.6" x2="536.7" y2="439.6"/>
	<circle fill="#00ACEE" cx="240.5" cy="76.6" r="46.5"/>
	<path fill="#00ACEE" d="M319.2,205.6v5.8h-29v-24.8h-6.2v24.8h-11.6c-6.6,0-12,5.4-12,12v111.2h-37.9V225.1
		c0-7.8-6.4-14.1-14.1-14.1h-11.2v-24.3h-6.2v24.3h-29v-4.8c16.5-7.1,28.1-23.6,28.1-42.7c0-7.8-2-15.2-5.4-21.7h112
		c-3.2,6.3-5,13.5-5,21.1C291.6,181.9,302.9,198.3,319.2,205.6z"/>
	<line fill="#808080" x1="159.3" y1="430.9" x2="153.1" y2="430.9"/>
	<line fill="#808080" x1="414.6" y1="207.8" x2="408.4" y2="207.8"/>
	<line fill="none" x1="567" y1="218.6" x2="560.7" y2="218.6"/>
	<circle fill="#00ACEE" cx="127.3" cy="151.3" r="46.5"/>
	<path fill="#00ACEE" d="M205.9,238.4v169.1c0,6.5-5.3,11.8-11.8,11.8h-5.4c-6.5,0-11.8-5.3-11.8-11.8V271.3h-6.2v141.2
		c0,3.8-3.1,6.9-6.9,6.9H90.7c-3.8,0-6.9-3.1-6.9-6.9V271.3h-6.2v136.2c0,6.5-5.3,11.8-11.8,11.8h-5.4c-6.5,0-11.8-5.3-11.8-11.8
		V238.4c0-6.6,5.4-12,12-12h133.3C200.5,226.4,205.9,231.8,205.9,238.4z"/>
	<circle fill="#00ACEE" cx="355.1" cy="158.3" r="46.5"/>
	<path fill="#00ACEE" d="M433.7,238.4v169.1c0,6.5-5.3,11.8-11.8,11.8h-5.4c-6.5,0-11.8-5.3-11.8-11.8V271.3h-6.2v141.2
		c0,3.8-3.1,6.9-6.9,6.9h-73.1c-3.8,0-6.9-3.1-6.9-6.9V271.3h-6.2v136.2c0,6.5-5.3,11.8-11.8,11.8h-5.4c-6.5,0-11.8-5.3-11.8-11.8
		V238.4c0-6.6,5.4-12,12-12h133.3C428.3,226.4,433.7,231.8,433.7,238.4z"/>
</g>
</svg>
