<?xml version="1.0" encoding="utf-8"?>
<!-- Generator: Adobe Illustrator 18.0.0, SVG Export Plug-In . SVG Version: 6.00 Build 0)  -->
<!DOCTYPE svg PUBLIC "-//W3C//DTD SVG 1.1//EN" "http://www.w3.org/Graphics/SVG/1.1/DTD/svg11.dtd">
<svg version="1.1" xmlns="http://www.w3.org/2000/svg" xmlns:xlink="http://www.w3.org/1999/xlink" x="0px" y="0px"
	 viewBox="0 0 190 196" enable-background="new 0 0 190 196" xml:space="preserve">
<g id="Layer_1">
</g>
<g id="Events_2_Share">
	<circle fill="#00ACEE" cx="95.9" cy="96.6" r="84"/>
	<path id="_x36_4_2_" fill="#FFFFFF" d="M138.2,72.9c-3,1.3-6.3,2.2-9.7,2.6c0-0.1-0.1-0.1-0.1-0.2c3.6-2.1,6.4-5.5,7.8-9.5
		c-1,0.6-6.1,3.5-11,4.4c-3.2-3.5-7.9-5.8-13-5.8c-10.9,0-17.6,8.9-17.6,17.6c0,0.7,0.3,3.5,0.4,3.6c-14.6-0.3-27.6-7.4-36-18.2
		c-6,10.9,0.3,20.4,4.6,23.7c-2.5,0-4.9-0.6-7-1.5c0.5,8.4,6.5,15.3,14.5,17c-3.2,0.9-7,0.2-8.5-0.2c2.4,7,8.8,12.1,16.5,12.5
		c-11.8,8.7-24.5,7.8-24.8,7.8c7.5,4.5,16.2,7.1,25.6,7.1c34.3-0.2,51.9-30.7,49.8-52.5C133.4,79.7,136.5,76.7,138.2,72.9z"/>
</g>
</svg>
