<?xml version="1.0" encoding="utf-8"?>
<!-- Generator: Adobe Illustrator 18.0.0, SVG Export Plug-In . SVG Version: 6.00 Build 0)  -->
<!DOCTYPE svg PUBLIC "-//W3C//DTD SVG 1.1//EN" "http://www.w3.org/Graphics/SVG/1.1/DTD/svg11.dtd">
<svg version="1.1" xmlns="http://www.w3.org/2000/svg" xmlns:xlink="http://www.w3.org/1999/xlink" x="0px" y="0px"
	 viewBox="0 0 1024 1024" enable-background="new 0 0 1024 1024" xml:space="preserve">
<g id="Layer_2" display="none">
	<rect fill="#FFFFFF" width="1024" height="1024"/>
	<linearGradient id="SVGID_1_" gradientUnits="userSpaceOnUse" x1="512" y1="-2.298657e-08" x2="512" y2="1024">
		<stop  offset="0.3897" style="stop-color:#FFFFFF;stop-opacity:0.1"/>
		<stop  offset="1" style="stop-color:#000000;stop-opacity:0.3"/>
	</linearGradient>
	<rect fill="url(#SVGID_1_)" width="1024" height="1024"/>
</g>
<g id="Layer_1">
	<path fill-rule="evenodd" clip-rule="evenodd" fill="#00ABEE" d="M595.5,385.1c-15.3-21.1-40-38.3-73.5-41.2c-2.2,0-4.5,0-6.7,0
		c-2.2,0-4.5,0-6.7,0c-33.4,2.9-58.2,20.2-73.5,41.2c-16.2,22.4-24.8,56.7-13.4,90.3c9.2,27.2,25.4,50.7,41.4,73.1
		c16.2,22.7,33.8,44.4,52.2,61.6c18.4-17.2,36-38.9,52.2-61.6c16-22.4,32.2-45.8,41.4-73.1C620.3,441.8,611.8,407.5,595.5,385.1z
		 M514.7,519.3c-41.1,0-74.3-33.2-74.3-74.1c0-40.9,33.3-74.1,74.3-74.1c41,0,74.3,33.2,74.3,74.1
		C589,486.1,555.7,519.3,514.7,519.3z"/>
	<ellipse opacity="0.5" fill="#515151" cx="515.5" cy="626.1" rx="31.9" ry="6.7"/>
	<g>
		<polygon fill="#42BC62" points="607.8,680.1 693.7,680.1 651.4,619.4 585.4,619.4 		"/>
		<polygon fill="#00ABEE" points="554.7,619.4 375.4,619.4 330.3,680.1 574,680.1 		"/>
	</g>
	<path fill="#00ABEE" d="M603.2,550.2h-32.4c-2.6,3.7-5.3,7.3-8,10.9l15.9,37.6H637L603.2,550.2z"/>
	<g>
		<path fill="#42BC62" d="M460.1,550.2h-37.9l-34.3,48.5h111.8C485.8,584.3,472.6,567.6,460.1,550.2z"/>
	</g>
	<path fill="#42BC62" d="M531.2,598.8h16.5l-4.3-13.4C539.3,590,535.3,594.5,531.2,598.8z"/>
	<path opacity="0.4" fill="#515151" d="M542.1,625.3c0,3.1-12,5.6-26.8,5.6c-14.8,0-26.8-2.5-26.8-5.6c0-3.1,12-5.6,26.8-5.6
		C530.1,619.7,542.1,622.2,542.1,625.3z"/>
</g>
</svg>
