<?xml version="1.0" encoding="utf-8"?>
<!-- Generator: Adobe Illustrator 18.0.0, SVG Export Plug-In . SVG Version: 6.00 Build 0)  -->
<!DOCTYPE svg PUBLIC "-//W3C//DTD SVG 1.1//EN" "http://www.w3.org/Graphics/SVG/1.1/DTD/svg11.dtd">
<svg version="1.1" id="Layer_1" xmlns="http://www.w3.org/2000/svg" xmlns:xlink="http://www.w3.org/1999/xlink" x="0px" y="0px"
	 viewBox="0 0 455.2 314" enable-background="new 0 0 455.2 314" xml:space="preserve">
<rect x="-245.8" y="-153" display="none" fill="#2C2E3E" stroke="#000000" stroke-miterlimit="10" width="1019" height="603"/>
<g>
	<path fill="none" stroke="#F2F2F2" stroke-width="4" d="M2.2,7c0-1.2,1-2,2.5-2h42.3c1.5,0,2.3,0.6,2.3,1.6V59
		c0,0.8,0.8,1.4,1.8,1.4h5c1.3,0,2.3-0.8,2.3-1.4V6.8c0-1,0.8-1.8,2-1.8H103c1.5,0,2.5,0.8,2.5,1.8v146c0,1-0.8,2.2-2,2.2H60.7
		c-1.3,0-2.3-1.2-2.3-2.2v-52.2c0-0.8-0.5-1.6-1.5-1.6h-5.8c-1.3,0-1.8,0.8-1.8,1.6V153c0,1-1,2-2.3,2H5.5c-1.8,0-3.3-1.4-3.3-3V7z"
		/>
	<path fill="none" stroke="#F2F2F2" stroke-width="4" d="M190.2,5c1.8,0,3,1.2,3.3,2.6l34.5,143c0.5,2.2-0.8,4.4-3.5,4.4h-40.8
		c-1.5,0-3-0.8-3.3-2l-5-30c-0.3-1-1.3-1.6-2.5-1.6h-13.6c-1,0-2,0.8-2.3,2l-4.8,29.4c-0.3,1.4-2,2.2-3.3,2.2h-41.6
		c-2.3,0-3.5-1.4-3-3.4L138.1,7.4c0.3-1,1.5-2.4,3-2.4H190.2z M168.1,80.4c-0.5-2.8-1-4.6-1.8-4.6s-1.3,1.4-1.8,4.6l-3.3,19
		c-0.3,1,0.3,2,1.5,2c8.1,0,8.8,0,8.6-1.8L168.1,80.4z"/>
	<path fill="none" stroke="#F2F2F2" stroke-width="4" d="M227,8.4c0-2,1.3-3.4,3.5-3.4h58.7c11.6,0,48.9,6.6,48.9,44.4
		c0,18.6-20.9,37-45.1,37c-12.3,0-13.6,0-13.6,2.4v63.4c0,1.6-1.5,2.8-4.3,2.8h-44.1c-2.3,0-4-1.6-4-3.6V8.4z M279.4,60.6
		c0,0.8,0.8,2.2,2.5,2.2c3.8,0,5.3-2.6,5.3-6.6V48c0-3.2-2-5.4-5.3-5.4c-0.8,0-1.3,0-1.8,0.2s-0.8,1-0.8,1.6V60.6z"/>
	<path fill="none" stroke="#F2F2F2" stroke-width="4" d="M338.1,8.4c0-2,1.3-3.4,3.5-3.4h58.7c11.6,0,48.9,6.6,48.9,44.4
		c0,18.6-20.9,37-45.1,37c-12.3,0-13.6,0-13.6,2.4v63.4c0,1.6-1.5,2.8-4.3,2.8h-44.1c-2.3,0-4-1.6-4-3.6V8.4z M390.6,60.6
		c0,0.8,0.8,2.2,2.5,2.2c3.8,0,5.3-2.6,5.3-6.6V48c0-3.2-2-5.4-5.3-5.4c-0.8,0-1.3,0-1.8,0.2s-0.8,1-0.8,1.6V60.6z"/>
</g>
<g>
	<path fill="none" stroke="#F2F2F2" stroke-width="4" d="M53.8,206.4c-1.2,0-2-0.6-2.4-2.2c-1.2-4.8-3.2-7.2-6-7.2c-2,0-3,1.6-3,3.6
		c0,6.4,9.4,13.6,21.4,21.8c13,8.8,22.8,23.2,22.8,38c0,26.8-16,48.2-42.2,48.2c-30.4,0-44.4-22-44.4-54c0-1,0.8-2,2.4-2l27.6-1.4
		c1.4,0,2.2,0.8,2.4,2.6c0.8,8,4.2,16.6,9,16.6c2.8,0,4.6-1.8,4.6-6.4c0-4.8-11.2-13.6-24.6-24.4c-13.4-10.8-20-25.8-20-39.4
		c0-20.4,15.2-42.6,42-42.6c26.8,0,43.4,21,43.4,44.8c0,1.4-0.8,2.6-2.4,2.6L53.8,206.4z"/>
	<path fill="none" stroke="#F2F2F2" stroke-width="4" d="M88.8,160.6c0-1.4,1-2.6,2.2-2.6h33.8c1.4,0,2.4,0.8,2.8,2.4l12,45
		c0.4,1.6,1,2.4,1.4,2.4c0.6,0,1.2-0.8,1.2-2.6v-44.6c0-1.4,1-2.6,2.4-2.6h30c1.6,0,2.6,1.4,2.6,2.8v144.6c0,1.4-0.8,2.6-2.2,2.6
		h-37.4c-0.8,0-2-0.8-2.2-2l-8.8-36c-0.4-2-1.2-2.8-1.8-2.8c-0.6,0-1,0.8-1,2.8v35.4c0,1.4-1.2,2.6-2.6,2.6H90.8c-1.2,0-2-1.2-2-2.8
		V160.6z"/>
	<path fill="none" stroke="#F2F2F2" stroke-width="4" d="M244.6,158c1.4,0,2.4,1.2,2.6,2.6l27.4,143c0.4,2.2-0.6,4.4-2.8,4.4h-32.4
		c-1.2,0-2.4-0.8-2.6-2l-4-30c-0.2-1-1-1.6-2-1.6H220c-0.8,0-1.6,0.8-1.8,2l-3.8,29.4c-0.2,1.4-1.6,2.2-2.6,2.2h-33
		c-1.8,0-2.8-1.4-2.4-3.4l26.8-144.2c0.2-1,1.2-2.4,2.4-2.4H244.6z M227,233.4c-0.4-2.8-0.8-4.6-1.4-4.6s-1,1.4-1.4,4.6l-2.6,19
		c-0.2,1,0.2,2,1.2,2c6.4,0,7,0,6.8-1.8L227,233.4z"/>
	<path fill="none" stroke="#F2F2F2" stroke-width="4" d="M274,161.4c0-2,1-3.4,2.8-3.4h46.6c9.2,0,38.8,6.6,38.8,44.4
		c0,18.6-16.6,37-35.8,37c-9.8,0-10.8,0-10.8,2.4v63.4c0,1.6-1.2,2.8-3.4,2.8h-35c-1.8,0-3.2-1.6-3.2-3.6V161.4z M315.6,213.6
		c0,0.8,0.6,2.2,2,2.2c3,0,4.2-2.6,4.2-6.6V201c0-3.2-1.6-5.4-4.2-5.4c-0.6,0-1,0-1.4,0.2s-0.6,1-0.6,1.6V213.6z"/>
	<path fill="none" stroke="#F2F2F2" stroke-width="4" d="M362.4,161.4c0-2,1-3.4,2.8-3.4h46.6c9.2,0,38.8,6.6,38.8,44.4
		c0,18.6-16.6,37-35.8,37c-9.8,0-10.8,0-10.8,2.4v63.4c0,1.6-1.2,2.8-3.4,2.8h-35c-1.8,0-3.2-1.6-3.2-3.6V161.4z M404,213.6
		c0,0.8,0.6,2.2,2,2.2c3,0,4.2-2.6,4.2-6.6V201c0-3.2-1.6-5.4-4.2-5.4c-0.6,0-1,0-1.4,0.2s-0.6,1-0.6,1.6V213.6z"/>
</g>
</svg>
