<?xml version="1.0" encoding="utf-8"?>
<!-- Generator: Adobe Illustrator 18.0.0, SVG Export Plug-In . SVG Version: 6.00 Build 0)  -->
<!DOCTYPE svg PUBLIC "-//W3C//DTD SVG 1.1//EN" "http://www.w3.org/Graphics/SVG/1.1/DTD/svg11.dtd">
<svg version="1.1" xmlns="http://www.w3.org/2000/svg" xmlns:xlink="http://www.w3.org/1999/xlink" x="0px" y="0px"
	 viewBox="0 0 486 515" enable-background="new 0 0 486 515" xml:space="preserve">
<g id="Background">
	<rect x="-21" y="-17" stroke="#FFFFFF" stroke-width="0.6776" stroke-miterlimit="10" width="514" height="531"/>
</g>
<g id="Layer_1">
	<path fill="none" stroke="#FFFFFF" stroke-width="9" stroke-miterlimit="10" d="M448.8,179.3c0,86.7-70.3,157-157,157
		c-46.1,0-87.6-19.9-116.3-51.6c-25.3-27.9-40.7-64.9-40.7-105.4c0-86.7,70.3-157,157-157C378.5,22.3,448.8,92.6,448.8,179.3z"/>
	<g>
		<g>
			<path fill="#FFFFFF" d="M163.3,281.6c-34.2,36.1-68.5,72.2-102.7,108.3c-8.5,8.9-16.9,17.8-25.4,26.8c-7.5,7.9-7.9,20.4,0,28.3
				c7.6,7.6,20.8,7.9,28.3,0c34.2-36.1,68.5-72.2,102.7-108.3c8.5-8.9,16.9-17.8,25.4-26.8c7.5-7.9,7.9-20.4,0-28.3
				C184,274.1,170.8,273.7,163.3,281.6L163.3,281.6z"/>
		</g>
	</g>
</g>
</svg>
