<?xml version="1.0" encoding="utf-8"?>
<!-- Generator: Adobe Illustrator 18.0.0, SVG Export Plug-In . SVG Version: 6.00 Build 0)  -->
<!DOCTYPE svg PUBLIC "-//W3C//DTD SVG 1.1//EN" "http://www.w3.org/Graphics/SVG/1.1/DTD/svg11.dtd">
<svg version="1.1" xmlns="http://www.w3.org/2000/svg" xmlns:xlink="http://www.w3.org/1999/xlink" x="0px" y="0px"
	 viewBox="0 0 392 385" enable-background="new 0 0 392 385" xml:space="preserve">
<g id="Layer_1">
	<rect stroke="#FFFFFF" stroke-width="0.493" stroke-miterlimit="10" width="392" height="385"/>
</g>
<g id="Layer_2">
	<g>
		<path fill="none" stroke="#FFFFFF" stroke-width="9" stroke-miterlimit="10" d="M199.1,371H23.6V195.5
			C23.6,98.6,102.1,20,199.1,20h0c96.9,0,175.5,78.6,175.5,175.5v0C374.6,292.4,296,371,199.1,371z"/>
		<path fill="none" stroke="#FFFFFF" stroke-width="7.3476" stroke-miterlimit="10" d="M28.7,254.2l101-17.4
			c6.8-1.1,11.5,4.6,11.2,13.7l-2.9,114.7L28.7,254.2z"/>
		<g>
			<g>
				<path fill="#FFFFFF" d="M98.6,163c49.2,0,98.5,0,147.7,0c18.3,0,36.6,0,54.9,0c12.9,0,12.9-20,0-20c-49.2,0-98.5,0-147.7,0
					c-18.3,0-36.6,0-54.9,0C85.7,143,85.7,163,98.6,163L98.6,163z"/>
			</g>
		</g>
		<g>
			<g>
				<path fill="#FFFFFF" d="M98.6,213c49.2,0,98.5,0,147.7,0c18.3,0,36.6,0,54.9,0c12.9,0,12.9-20,0-20c-49.2,0-98.5,0-147.7,0
					c-18.3,0-36.6,0-54.9,0C85.7,193,85.7,213,98.6,213L98.6,213z"/>
			</g>
		</g>
		<g>
			<g>
				<path fill="#FFFFFF" d="M300.3,243.2c-48.8,0-97.5,0-146.3,0c-2.5,0-5,0-7.6,0c-12.6,0-12.6,19.6,0,19.6c48.8,0,97.5,0,146.3,0
					c2.5,0,5,0,7.6,0C312.9,262.8,312.9,243.2,300.3,243.2L300.3,243.2z"/>
			</g>
		</g>
	</g>
</g>
</svg>
